<?xml version="1.0" standalone="no"?>
<!DOCTYPE svg PUBLIC "-//W3C//DTD SVG 20010904//EN"
 "http://www.w3.org/TR/2001/REC-SVG-20010904/DTD/svg10.dtd">
<svg version="1.0" xmlns="http://www.w3.org/2000/svg"
 width="864.000000pt" height="864.000000pt" viewBox="0 0 864.000000 864.000000"
 preserveAspectRatio="xMidYMid meet">
<metadata>
Created by potrace 1.11, written by Peter Selinger 2001-2013
</metadata>
<g transform="translate(0.000000,864.000000) scale(0.100000,-0.100000)"
fill="#000000" stroke="none">
<path d="M4463 8603 c9 -2 25 -2 35 0 9 3 1 5 -18 5 -19 0 -27 -2 -17 -5z"/>
<path d="M4175 8573 c-16 -3 -99 -18 -183 -34 -181 -34 -181 -34 -190 -11 -6
17 -37 6 -312 -113 -501 -215 -716 -332 -933 -504 -42 -34 -79 -61 -82 -61 -3
0 -5 14 -5 30 0 31 -14 41 -23 16 -3 -7 -99 -99 -214 -203 -331 -302 -487
-478 -508 -574 -4 -19 -16 -34 -30 -39 -31 -12 -68 -81 -161 -299 -62 -147
-87 -194 -120 -229 -34 -35 -48 -43 -70 -40 -27 3 -31 -2 -81 -112 -80 -175
-184 -445 -251 -650 -107 -325 -111 -343 -99 -365 9 -15 12 -212 13 -720 1
-742 6 -828 55 -1112 159 -923 647 -1830 1350 -2507 475 -458 991 -770 1555
-940 173 -52 273 -72 439 -85 155 -13 485 -25 485 -18 0 8 -156 43 -345 76
-270 48 -416 99 -535 186 -19 14 -100 89 -179 168 -143 141 -144 142 -112 84
31 -57 32 -59 9 -52 -59 18 -190 86 -253 133 -60 44 -100 64 -188 95 -17 6
-15 12 17 56 l36 49 -29 7 c-71 15 -224 142 -293 243 l-30 44 -58 -7 -59 -7
-75 101 c-83 112 -132 204 -144 271 l-9 45 -13 -27 c-7 -16 -17 -28 -21 -28
-8 0 -198 254 -266 355 -53 79 -93 156 -93 177 0 12 8 18 25 18 22 0 20 4 -27
48 -28 26 -64 67 -80 90 l-30 44 27 28 27 28 -66 99 c-69 104 -139 244 -151
303 l-8 35 55 -51 c49 -46 93 -73 103 -62 8 7 -115 251 -151 299 -48 66 -82
88 -155 101 -75 13 -113 44 -158 127 -25 48 -101 240 -101 256 0 3 9 5 20 5
11 0 20 4 20 8 0 4 -19 46 -41 92 l-42 85 11 109 c10 107 10 110 -13 145 -99
150 -118 484 -60 1037 9 77 24 229 36 339 11 110 27 225 35 255 8 30 79 182
157 338 150 298 151 301 90 302 -13 0 -23 4 -23 8 0 28 190 266 348 437 292
316 596 537 758 552 55 5 62 8 87 43 35 50 34 56 -5 32 -46 -27 -78 -36 -78
-21 0 13 98 105 174 163 101 76 187 108 346 126 123 14 158 24 195 56 34 29
40 29 -82 0 -59 -13 -82 -9 -69 13 3 5 51 23 105 41 58 18 139 55 193 86 176
104 247 134 374 159 162 32 214 36 214 19 0 -17 -8 -17 102 3 144 27 525 24
717 -6 350 -54 611 -147 844 -301 392 -259 755 -713 931 -1162 64 -164 102
-319 121 -501 4 -36 12 -60 21 -64 12 -4 14 -58 14 -327 0 -310 -10 -450 -39
-571 -14 -56 -7 -54 18 5 12 27 24 50 28 50 3 0 3 -39 -1 -87 -6 -86 -45 -221
-110 -378 -22 -55 -29 -63 -82 -91 -77 -41 -104 -89 -104 -185 0 -36 -5 -80
-11 -97 -7 -20 -63 -77 -164 -167 -277 -246 -413 -345 -445 -325 -12 7 -7 17
24 49 74 76 30 51 -78 -44 -59 -52 -130 -107 -159 -122 -76 -38 -189 -75 -200
-64 -5 5 -40 -3 -86 -19 -133 -49 -221 -63 -381 -63 -171 0 -302 26 -471 92
-293 114 -570 347 -746 626 -113 179 -195 427 -210 635 -6 86 -7 90 -24 74
-17 -15 -18 -15 -25 11 -3 14 -3 72 1 128 18 260 86 467 222 671 181 271 468
461 807 533 114 25 361 24 476 0 196 -42 299 -89 510 -234 14 -9 -6 16 -45 56
-271 282 -649 415 -1022 357 -317 -48 -632 -245 -778 -486 -21 -35 -64 -89
-94 -119 -67 -67 -113 -152 -175 -324 -48 -133 -69 -181 -91 -207 -35 -40 -47
-440 -19 -627 63 -431 271 -735 775 -1136 76 -59 139 -116 141 -125 4 -13 40
-29 124 -55 577 -180 1102 -151 1591 87 228 112 361 210 649 479 69 65 128
116 131 113 2 -2 -1 -14 -7 -26 -6 -11 -10 -35 -8 -53 l4 -32 17 38 c12 25 17
60 16 106 -1 59 3 77 31 132 36 72 68 119 79 119 4 0 23 -21 42 -47 27 -39 34
-44 37 -28 13 79 43 160 117 315 93 193 125 297 125 400 0 68 15 100 40 85 6
-4 10 18 10 64 0 39 4 71 8 71 5 0 22 -34 38 -75 l30 -75 0 87 c1 93 14 148
69 298 53 145 52 135 9 132 -48 -3 -61 20 -71 124 -11 106 -6 150 18 156 24 7
24 8 -2 44 -29 41 -73 144 -93 217 -26 95 -8 97 50 7 29 -47 54 -75 54 -62 0
2 -16 73 -35 158 -19 85 -35 170 -35 189 0 36 -46 131 -67 137 -6 2 -14 -5
-18 -17 -4 -12 -12 -20 -18 -18 -19 6 -55 88 -69 156 -17 85 -8 97 66 97 48 0
60 4 75 23 l17 24 26 -40 c39 -58 103 -189 147 -299 40 -101 123 -352 136
-411 4 -18 9 -31 12 -28 8 7 -52 237 -98 376 -26 76 -42 146 -43 180 -1 30 -6
92 -11 138 -5 49 -4 82 1 82 5 0 22 -19 37 -42 36 -56 34 -36 -9 80 -160 428
-458 828 -869 1164 -95 78 -247 183 -330 229 l-60 33 60 -64 c34 -36 54 -65
48 -67 -14 -5 -132 69 -187 118 -22 19 -48 53 -58 76 -16 37 -25 44 -70 58
-65 19 -141 19 -204 0 -89 -27 -119 -21 -275 54 -134 65 -260 111 -569 209
-69 22 -133 43 -143 47 -16 7 -17 3 -11 -33 l6 -41 -53 14 c-69 19 -189 19
-276 1 -95 -20 -212 -28 -253 -17 l-35 8 40 17 c22 9 49 20 60 25 38 15 -272
32 -360 19 -47 -7 -49 -6 -30 8 11 9 50 31 88 50 37 19 67 36 67 39 0 5 -4 5
-55 -2z"/>
<path d="M4512 8525 c14 -14 121 -34 136 -26 15 8 15 10 2 14 -23 8 -144 18
-138 12z"/>
<path d="M1086 6712 c-4 -30 -16 -72 -27 -94 -22 -42 -18 -42 38 -1 33 25 63
86 63 128 0 22 -4 25 -34 22 -33 -2 -34 -3 -40 -55z"/>
<path d="M890 6073 c-27 -43 -30 -54 -30 -132 0 -52 4 -80 9 -71 13 24 63 250
55 250 -3 0 -18 -21 -34 -47z"/>
<path d="M6006 5158 c-28 -44 -29 -72 -1 -134 33 -74 45 -61 45 52 0 59 -4 85
-14 93 -12 10 -18 8 -30 -11z"/>
<path d="M7576 4699 c-5 -20 -37 -188 -52 -269 -4 -24 -4 -24 5 -3 14 32 64
283 57 290 -3 3 -7 -5 -10 -18z"/>
<path d="M7422 4690 c0 -14 2 -19 5 -12 2 6 2 18 0 25 -3 6 -5 1 -5 -13z"/>
<path d="M7411 4634 c0 -11 3 -14 6 -6 3 7 2 16 -1 19 -3 4 -6 -2 -5 -13z"/>
<path d="M5741 4479 c-49 -72 -61 -99 -59 -123 2 -25 9 -33 34 -41 17 -6 38
-16 47 -23 13 -11 20 -5 51 46 39 64 80 152 90 192 4 14 -14 -14 -39 -61 -40
-75 -52 -90 -94 -113 -98 -53 -100 -35 -13 112 30 51 52 95 49 98 -2 3 -33
-36 -66 -87z"/>
<path d="M7506 4374 c-4 -14 -5 -28 -3 -31 3 -2 8 8 11 23 4 14 5 28 3 31 -3
2 -8 -8 -11 -23z"/>
<path d="M5280 4079 c-25 -4 -109 -8 -187 -8 -86 -1 -143 -5 -143 -11 0 -17
56 -39 157 -64 57 -14 104 -20 113 -16 24 13 126 109 115 108 -5 0 -30 -4 -55
-9z"/>
<path d="M3566 4020 c12 -45 123 -249 124 -229 1 17 -32 94 -51 121 -12 17
-35 53 -51 82 -16 28 -26 40 -22 26z"/>
<path d="M3425 3820 c-6 -38 -3 -47 56 -133 103 -151 209 -278 209 -250 0 6
-43 81 -96 168 -52 87 -106 180 -120 206 -13 27 -28 49 -33 49 -5 0 -12 -18
-16 -40z"/>
<path d="M3630 3711 c0 -21 114 -166 199 -254 429 -442 1187 -714 1609 -577
l57 18 -155 1 c-243 2 -477 35 -633 90 -69 24 -180 95 -243 155 -26 25 -49 46
-51 46 -2 0 -3 -7 -3 -15 0 -24 -20 -18 -117 39 -115 68 -214 142 -323 243
l-84 78 48 -65 c27 -36 83 -100 125 -144 72 -74 74 -77 34 -56 -63 35 -158
125 -302 289 -120 136 -161 175 -161 152z"/>
</g>
</svg>
